<?xml version="1.0" encoding="UTF-8"?>
<svg id="_Слой_1" data-name="Слой_1" xmlns="http://www.w3.org/2000/svg" version="1.1" viewBox="0 0 2174 2500">
  <!-- Generator: Adobe Illustrator 29.6.0, SVG Export Plug-In . SVG Version: 2.1.1 Build 207)  -->
  <defs>
    <style>
      .st0 {
        fill: #fff;
        fill-rule: evenodd;
      }
    </style>
  </defs>
  <path class="st0" d="M807.63,142.68c-148.77,77.49-270.48,143.07-270.45,145.74.07,6.88,357.04,187.67,369.71,187.23,5.76-.19,47.57-19.44,92.91-42.76l82.44-42.4,90.03,46.28,90.03,46.29,147.44-66.25c222.16-99.83,245.23-110.77,241.62-114.44-4.8-4.88-84.48-47.68-300.67-161.5-104.48-55.01-205.89-108.94-225.36-119.86-19.47-10.91-38.05-19.69-41.3-19.52s-127.63,63.71-276.4,141.2h0ZM155.14,480.55L.28,560.55v351.07c0,193.09,2.03,351.07,4.53,351.07s78.68-33.03,169.31-73.4l164.79-73.4v-370.05l80.53,43.87c62.05,33.78,124.15,67.48,186.27,101.12l105.74,57.25,47.05-21.28c29.51-13.37,58.96-26.86,88.35-40.49,22.71-10.58,78.46-35.69,123.89-55.81,45.43-20.13,87.48-40.38,93.44-44.99,7.92-6.13-88.66-59.5-357.23-197.42-202.44-103.96-374.57-188.69-382.51-188.28s-84.12,36.73-169.3,80.73h0ZM1679.25,503.02c-105.47,47.61-191.84,88.47-191.94,90.8-.09,2.33,57.39,36.51,127.75,75.95,70.35,39.45,127.92,73.83,127.92,76.42s-62.26,32.75-138.34,67.05c-76.1,34.29-268.43,121.15-427.42,193.02l-532.73,240.8c-134.01,60.58-254.8,115.18-268.43,121.35-273.72,123.91-348.95,158.29-359.28,164.19-10.39,5.94-12.74,40.46-14.59,213.72L0,1952.97l138.49,70.56,138.48,70.56,192.03-86.66c105.62-47.66,192.03-89.15,192.03-92.21s-19.52-15.76-43.36-28.27c-23.85-12.51-73.1-40.19-109.44-61.54-36.34-21.35-72.57-40.93-80.53-43.53-7.95-2.59-14.34-7.12-14.21-10.08.13-2.95,84.69-43.11,187.9-89.26,200.46-89.63,353.87-158.71,683.22-307.64,147.27-66.59,294.57-133.11,441.87-199.63,129.46-58.44,279.99-126.68,334.5-151.66l99.11-45.41,2.2-209,2.21-208.99-140.46-72.09c-77.26-39.65-143.29-71.99-146.75-71.87-3.46.11-92.58,39.16-198.04,86.78h0ZM2122.45,1257c-20.7,10.11-61.58,29.04-90.85,42.06s-84.81,38.08-123.43,55.7l-70.2,32.02-1.6,183.48c-.88,100.91-4.6,183.03-8.26,182.5-8.31-1.24-139.89-68.72-272.15-139.59-95.46-51.15-101.46-53.18-123.89-42.07-12.97,6.43-90.48,41.19-172.25,77.26-81.77,36.07-151.33,67.94-154.61,70.82-3.26,2.88,161.3,92.07,365.71,198.22l371.64,192.99,158.76-82.13c87.31-45.16,161.55-86.36,164.97-91.54,7.7-11.65,7.04-699.71-.67-698.78-3.05.37-22.48,8.94-43.18,19.05h0ZM1243.3,2064.62c-27.54,11.84-55.07,23.7-82.59,35.57-83.11,35.96-66.83,37.15-165.71-12.07-65.86-32.78-94.25-42.9-106.57-37.99-9.24,3.68-88.79,39.47-176.78,79.53-87.99,40.06-163.03,72.83-166.76,72.83-36.92,0,24.46,36.67,261.28,156.13l277.74,140.09,116.86-57.69c64.27-31.73,193.91-95.28,288.09-141.2,94.17-45.94,170.06-84.72,168.64-86.18-1.43-1.46-80.34-41.98-175.36-90.04l-172.77-87.38-66.07,28.42Z"/>
</svg>