<?xml version="1.0" encoding="UTF-8"?>
<svg id="_Слой_1" data-name="Слой 1" xmlns="http://www.w3.org/2000/svg" viewBox="0 0 781.04 245.99">
  <defs>
    <style>
      .cls-1 {
        fill: #fb1b00;
      }
    </style>
  </defs>
  <path class="cls-1" d="M48.76,203.72c-2.39-2.03-8.69-6.29-11.57-7.94-9.31-5.33-26.56-7.66-37.19-9.45l4.24-1.08,173.24-43.76.47-1.48c-23.76-13.82-48.28-26.71-71.39-41.6-2.64-1.7-11.76-7.14-13.14-8.87-.7-.88-1.49-1.4-.51-2.57l26.51-24.53L273.48,0l-54.5,68.98c.01-3.69.21-6.6.32-9.7.05-1.46.37-1.59-1.32-1.31l-59.49,26.03,71.52,47.01.32,3.22c-5.88,11.9-8.17,26.06-14.87,37.22l-45.19,20.89"/>
  <path class="cls-1" d="M484.48,197.41l13.99,29.99c-.74.75-14.47-8-16.31-9.18-13.22-8.49-23.57-16.18-33.66-28.34-13.63-16.42-24.39-35.35-35.52-53.47l-23.51,60.49-37.98,6.5,47.85-127.75-6.76-13.09c6.65.07,12.21-.24,18.35-.2,28.02.2,56.2.2,84.08-.03,3.17-.03,10.93-.1,12.92,2.09.89.98,9.57,13.92,10.06,15.02.34.76.67,1.44.47,2.31l-12.89,37.97-50.08,21.69,29,55.99,47.04-122.74c-2.48-4.43-6.08-11.12-7.33-12.46l130.84.14v6.05l-31.31,26.75-7.73,1.33-56.34.1-7.16,17.82,79.99-.98c1.13.96-3.18,4.74-3.98,5.51-5.35,5.13-28.56,25.34-34.49,25.51-7.92.23-52.73.23-55.64.57l-6.89,17.4,90-.99c.28,1.72-.19,3.02-1.14,4.35-5.98,8.36-13.42,19.32-20.28,27.72-3.78,2.27-13.24,1.78-19.25,1.78-30.63,0-61.2-.04-91.82,1.15-1.55.06-2.95.96-4.5,1ZM475.48,96.99h-48.5c-3.11,7.31-7.21,16.14-9.31,23.7-.41,1.49-.76,2.68,1.31,2.32l56.5-26.01Z"/>
  <path class="cls-1" d="M312.7,62.34c-7.19,16.38-14.48,33.3-21.75,50.64-.55,1.31-1.02,1.24,1.04,1.04,11.02-1.07,28.12-2.43,38.92-4.1,1.22-.19,2.67-.58,3.55-1.45,3.55-3.49,8.76-28.43,12.82-34.25.98-4.22-2.48-8.3-3.95-11.94l42.98.06-37.41,104.57c-19.76,18.76-40.87,36.11-58.41,57.08l28.99-77.99-45.01,4.47c-2.54,1.54-10.16,28.35-13.52,33.48-5.46,8.32-21.39,20.65-28.97,29.03-9.57,10.58-17.48,22.78-27.48,33.01.47-6.54,2.83-13.41,4.72-19.77,9.39-31.49,21.99-62.04,33.08-92.93-2.39-2.36-7.6-8.09-9.53-10.02-.68-.68-.71-.75-1.83-2.02l18.08-3.23,24.3-55.68c2.21,0,36.97-.13,39.39,0Z"/>
  <path class="cls-1" d="M769.42,62.75l11.62,29.99-25.22,61.87c-4.44,8.03-45.57,35.31-54.95,38.05-7.49,2.19-20.07,2.75-28.33,3.67-18.1,2.03-36.39,3-54.49,5l51.81-123.72c.76-5.44-4.35-12.79-6.81-15.28l106.36.41ZM670.04,165.33c20.69-4.57,40.37-3.85,52.52-23.97,6.28-10.4,10.59-23.09,16.09-34,.85-2.18-2.19-9.69-4.03-10.09-4.97-1.1-27.93-1.24-36.44-.79l-28.14,68.86Z"/>
</svg>